<mxfile host="app.diagrams.net" modified="2023-05-02T07:59:11.986Z" agent="Mozilla/5.0 (Windows NT 10.0; Win64; x64) AppleWebKit/537.36 (KHTML, like Gecko) Chrome/112.0.0.0 Safari/537.36" etag="MfRFjIQqbBevVGWIBooZ" version="21.1.5" type="device">
  <diagram id="C5RBs43oDa-KdzZeNtuy" name="Page-1">
    <mxGraphModel dx="1235" dy="636" grid="1" gridSize="10" guides="1" tooltips="1" connect="1" arrows="1" fold="1" page="1" pageScale="1" pageWidth="827" pageHeight="1169" math="0" shadow="0">
      <root>
        <mxCell id="WIyWlLk6GJQsqaUBKTNV-0" />
        <mxCell id="WIyWlLk6GJQsqaUBKTNV-1" parent="WIyWlLk6GJQsqaUBKTNV-0" />
        <mxCell id="4DhZCOvuepyt47Wr3g0Q-6" value="Test Oxygen level in the room" style="rounded=1;whiteSpace=wrap;html=1;" vertex="1" parent="WIyWlLk6GJQsqaUBKTNV-1">
          <mxGeometry x="40" y="10" width="120" height="60" as="geometry" />
        </mxCell>
        <mxCell id="4DhZCOvuepyt47Wr3g0Q-7" value="Is oxygen level&lt;br&gt;&amp;nbsp;within safe levels" style="rhombus;whiteSpace=wrap;html=1;" vertex="1" parent="WIyWlLk6GJQsqaUBKTNV-1">
          <mxGeometry x="210" y="150" width="120" height="120" as="geometry" />
        </mxCell>
        <mxCell id="4DhZCOvuepyt47Wr3g0Q-9" value="" style="endArrow=classic;html=1;rounded=0;exitX=0;exitY=0.5;exitDx=0;exitDy=0;" edge="1" parent="WIyWlLk6GJQsqaUBKTNV-1" source="4DhZCOvuepyt47Wr3g0Q-7">
          <mxGeometry width="50" height="50" relative="1" as="geometry">
            <mxPoint x="260" y="270" as="sourcePoint" />
            <mxPoint x="150" y="210" as="targetPoint" />
          </mxGeometry>
        </mxCell>
        <mxCell id="4DhZCOvuepyt47Wr3g0Q-13" value="" style="edgeStyle=orthogonalEdgeStyle;rounded=0;orthogonalLoop=1;jettySize=auto;html=1;" edge="1" parent="WIyWlLk6GJQsqaUBKTNV-1" source="4DhZCOvuepyt47Wr3g0Q-10" target="4DhZCOvuepyt47Wr3g0Q-11">
          <mxGeometry relative="1" as="geometry" />
        </mxCell>
        <mxCell id="4DhZCOvuepyt47Wr3g0Q-10" value="No" style="rounded=1;whiteSpace=wrap;html=1;" vertex="1" parent="WIyWlLk6GJQsqaUBKTNV-1">
          <mxGeometry x="70" y="190" width="80" height="40" as="geometry" />
        </mxCell>
        <mxCell id="4DhZCOvuepyt47Wr3g0Q-11" value="Full Lockout shut down all solenoids and disable safety relay" style="rounded=1;whiteSpace=wrap;html=1;" vertex="1" parent="WIyWlLk6GJQsqaUBKTNV-1">
          <mxGeometry x="40" y="270" width="140" height="80" as="geometry" />
        </mxCell>
        <mxCell id="4DhZCOvuepyt47Wr3g0Q-15" value="Yes" style="rounded=1;whiteSpace=wrap;html=1;" vertex="1" parent="WIyWlLk6GJQsqaUBKTNV-1">
          <mxGeometry x="390" y="190" width="80" height="40" as="geometry" />
        </mxCell>
        <mxCell id="4DhZCOvuepyt47Wr3g0Q-19" value="" style="endArrow=classic;html=1;rounded=0;exitX=1;exitY=0.5;exitDx=0;exitDy=0;entryX=0;entryY=0.5;entryDx=0;entryDy=0;" edge="1" parent="WIyWlLk6GJQsqaUBKTNV-1" source="4DhZCOvuepyt47Wr3g0Q-7" target="4DhZCOvuepyt47Wr3g0Q-15">
          <mxGeometry width="50" height="50" relative="1" as="geometry">
            <mxPoint x="260" y="270" as="sourcePoint" />
            <mxPoint x="310" y="220" as="targetPoint" />
          </mxGeometry>
        </mxCell>
        <mxCell id="4DhZCOvuepyt47Wr3g0Q-22" value="Does on time = 100" style="rounded=1;whiteSpace=wrap;html=1;" vertex="1" parent="WIyWlLk6GJQsqaUBKTNV-1">
          <mxGeometry x="520" y="350" width="120" height="60" as="geometry" />
        </mxCell>
        <mxCell id="4DhZCOvuepyt47Wr3g0Q-23" value="Anti runaway take 3 Oxygen samples at 4 second intervals and find the average" style="rounded=1;whiteSpace=wrap;html=1;" vertex="1" parent="WIyWlLk6GJQsqaUBKTNV-1">
          <mxGeometry x="470" y="490" width="220" height="60" as="geometry" />
        </mxCell>
        <mxCell id="4DhZCOvuepyt47Wr3g0Q-27" value="No" style="rounded=1;whiteSpace=wrap;html=1;" vertex="1" parent="WIyWlLk6GJQsqaUBKTNV-1">
          <mxGeometry x="540" y="290" width="80" height="40" as="geometry" />
        </mxCell>
        <mxCell id="4DhZCOvuepyt47Wr3g0Q-28" value="" style="endArrow=classic;html=1;rounded=0;exitX=0.5;exitY=1;exitDx=0;exitDy=0;" edge="1" parent="WIyWlLk6GJQsqaUBKTNV-1" source="4DhZCOvuepyt47Wr3g0Q-27" target="4DhZCOvuepyt47Wr3g0Q-22">
          <mxGeometry width="50" height="50" relative="1" as="geometry">
            <mxPoint x="270" y="300" as="sourcePoint" />
            <mxPoint x="320" y="250" as="targetPoint" />
          </mxGeometry>
        </mxCell>
        <mxCell id="4DhZCOvuepyt47Wr3g0Q-29" value="Is the Oxygen level dropping" style="rounded=1;whiteSpace=wrap;html=1;" vertex="1" parent="WIyWlLk6GJQsqaUBKTNV-1">
          <mxGeometry x="520" y="590" width="120" height="60" as="geometry" />
        </mxCell>
        <mxCell id="4DhZCOvuepyt47Wr3g0Q-30" value="Yes" style="rounded=1;whiteSpace=wrap;html=1;" vertex="1" parent="WIyWlLk6GJQsqaUBKTNV-1">
          <mxGeometry x="680" y="600" width="80" height="40" as="geometry" />
        </mxCell>
        <mxCell id="4DhZCOvuepyt47Wr3g0Q-31" value="No" style="rounded=1;whiteSpace=wrap;html=1;" vertex="1" parent="WIyWlLk6GJQsqaUBKTNV-1">
          <mxGeometry x="400" y="600" width="80" height="40" as="geometry" />
        </mxCell>
        <mxCell id="4DhZCOvuepyt47Wr3g0Q-32" value="" style="endArrow=classic;html=1;rounded=0;exitX=0.5;exitY=1;exitDx=0;exitDy=0;entryX=0.5;entryY=0;entryDx=0;entryDy=0;" edge="1" parent="WIyWlLk6GJQsqaUBKTNV-1" source="4DhZCOvuepyt47Wr3g0Q-23" target="4DhZCOvuepyt47Wr3g0Q-29">
          <mxGeometry width="50" height="50" relative="1" as="geometry">
            <mxPoint x="380" y="580" as="sourcePoint" />
            <mxPoint x="430" y="530" as="targetPoint" />
          </mxGeometry>
        </mxCell>
        <mxCell id="4DhZCOvuepyt47Wr3g0Q-33" value="" style="endArrow=classic;html=1;rounded=0;exitX=0;exitY=0.5;exitDx=0;exitDy=0;entryX=1;entryY=0.5;entryDx=0;entryDy=0;" edge="1" parent="WIyWlLk6GJQsqaUBKTNV-1" source="4DhZCOvuepyt47Wr3g0Q-29" target="4DhZCOvuepyt47Wr3g0Q-31">
          <mxGeometry width="50" height="50" relative="1" as="geometry">
            <mxPoint x="380" y="580" as="sourcePoint" />
            <mxPoint x="430" y="530" as="targetPoint" />
          </mxGeometry>
        </mxCell>
        <mxCell id="4DhZCOvuepyt47Wr3g0Q-34" value="" style="endArrow=classic;html=1;rounded=0;exitX=1;exitY=0.5;exitDx=0;exitDy=0;entryX=0;entryY=0.5;entryDx=0;entryDy=0;" edge="1" parent="WIyWlLk6GJQsqaUBKTNV-1" source="4DhZCOvuepyt47Wr3g0Q-29" target="4DhZCOvuepyt47Wr3g0Q-30">
          <mxGeometry width="50" height="50" relative="1" as="geometry">
            <mxPoint x="380" y="580" as="sourcePoint" />
            <mxPoint x="430" y="530" as="targetPoint" />
          </mxGeometry>
        </mxCell>
        <mxCell id="4DhZCOvuepyt47Wr3g0Q-35" value="Ignore and continue" style="rounded=1;whiteSpace=wrap;html=1;" vertex="1" parent="WIyWlLk6GJQsqaUBKTNV-1">
          <mxGeometry x="660" y="680" width="120" height="60" as="geometry" />
        </mxCell>
        <mxCell id="4DhZCOvuepyt47Wr3g0Q-36" value="" style="endArrow=classic;html=1;rounded=0;exitX=0.5;exitY=1;exitDx=0;exitDy=0;entryX=0.5;entryY=0;entryDx=0;entryDy=0;" edge="1" parent="WIyWlLk6GJQsqaUBKTNV-1" source="4DhZCOvuepyt47Wr3g0Q-30" target="4DhZCOvuepyt47Wr3g0Q-35">
          <mxGeometry width="50" height="50" relative="1" as="geometry">
            <mxPoint x="380" y="580" as="sourcePoint" />
            <mxPoint x="430" y="530" as="targetPoint" />
          </mxGeometry>
        </mxCell>
        <mxCell id="4DhZCOvuepyt47Wr3g0Q-37" value="Rerun anti runaway 3 more times&amp;nbsp;" style="rounded=1;whiteSpace=wrap;html=1;" vertex="1" parent="WIyWlLk6GJQsqaUBKTNV-1">
          <mxGeometry x="380" y="680" width="120" height="60" as="geometry" />
        </mxCell>
        <mxCell id="4DhZCOvuepyt47Wr3g0Q-38" value="" style="endArrow=classic;html=1;rounded=0;entryX=0.5;entryY=0;entryDx=0;entryDy=0;exitX=0.5;exitY=1;exitDx=0;exitDy=0;" edge="1" parent="WIyWlLk6GJQsqaUBKTNV-1" source="4DhZCOvuepyt47Wr3g0Q-31" target="4DhZCOvuepyt47Wr3g0Q-37">
          <mxGeometry width="50" height="50" relative="1" as="geometry">
            <mxPoint x="380" y="680" as="sourcePoint" />
            <mxPoint x="430" y="630" as="targetPoint" />
          </mxGeometry>
        </mxCell>
        <mxCell id="4DhZCOvuepyt47Wr3g0Q-40" value="" style="endArrow=classic;html=1;rounded=0;entryX=1;entryY=0.5;entryDx=0;entryDy=0;exitX=1;exitY=0.5;exitDx=0;exitDy=0;" edge="1" parent="WIyWlLk6GJQsqaUBKTNV-1" source="4DhZCOvuepyt47Wr3g0Q-35" target="4DhZCOvuepyt47Wr3g0Q-23">
          <mxGeometry width="50" height="50" relative="1" as="geometry">
            <mxPoint x="810" y="710" as="sourcePoint" />
            <mxPoint x="430" y="630" as="targetPoint" />
            <Array as="points">
              <mxPoint x="790" y="710" />
              <mxPoint x="790" y="520" />
            </Array>
          </mxGeometry>
        </mxCell>
        <mxCell id="4DhZCOvuepyt47Wr3g0Q-41" value="Is the Oxygen level dropping" style="rounded=1;whiteSpace=wrap;html=1;" vertex="1" parent="WIyWlLk6GJQsqaUBKTNV-1">
          <mxGeometry x="380" y="780" width="120" height="60" as="geometry" />
        </mxCell>
        <mxCell id="4DhZCOvuepyt47Wr3g0Q-42" value="" style="endArrow=classic;html=1;rounded=0;entryX=0.5;entryY=0;entryDx=0;entryDy=0;exitX=0.5;exitY=1;exitDx=0;exitDy=0;" edge="1" parent="WIyWlLk6GJQsqaUBKTNV-1">
          <mxGeometry width="50" height="50" relative="1" as="geometry">
            <mxPoint x="439.66" y="740" as="sourcePoint" />
            <mxPoint x="439.66" y="780" as="targetPoint" />
          </mxGeometry>
        </mxCell>
        <mxCell id="4DhZCOvuepyt47Wr3g0Q-43" value="No" style="rounded=1;whiteSpace=wrap;html=1;" vertex="1" parent="WIyWlLk6GJQsqaUBKTNV-1">
          <mxGeometry x="400" y="880" width="80" height="40" as="geometry" />
        </mxCell>
        <mxCell id="4DhZCOvuepyt47Wr3g0Q-44" value="Runaway Lockout for 10 minutes" style="rounded=1;whiteSpace=wrap;html=1;" vertex="1" parent="WIyWlLk6GJQsqaUBKTNV-1">
          <mxGeometry x="520" y="870" width="120" height="60" as="geometry" />
        </mxCell>
        <mxCell id="4DhZCOvuepyt47Wr3g0Q-45" value="" style="endArrow=classic;html=1;rounded=0;exitX=0.5;exitY=1;exitDx=0;exitDy=0;entryX=0.5;entryY=0;entryDx=0;entryDy=0;" edge="1" parent="WIyWlLk6GJQsqaUBKTNV-1" source="4DhZCOvuepyt47Wr3g0Q-41" target="4DhZCOvuepyt47Wr3g0Q-43">
          <mxGeometry width="50" height="50" relative="1" as="geometry">
            <mxPoint x="530" y="730" as="sourcePoint" />
            <mxPoint x="580" y="680" as="targetPoint" />
          </mxGeometry>
        </mxCell>
        <mxCell id="4DhZCOvuepyt47Wr3g0Q-46" value="" style="endArrow=classic;html=1;rounded=0;exitX=1;exitY=0.5;exitDx=0;exitDy=0;entryX=0;entryY=0.5;entryDx=0;entryDy=0;" edge="1" parent="WIyWlLk6GJQsqaUBKTNV-1" source="4DhZCOvuepyt47Wr3g0Q-43" target="4DhZCOvuepyt47Wr3g0Q-44">
          <mxGeometry width="50" height="50" relative="1" as="geometry">
            <mxPoint x="530" y="800" as="sourcePoint" />
            <mxPoint x="580" y="750" as="targetPoint" />
          </mxGeometry>
        </mxCell>
        <mxCell id="4DhZCOvuepyt47Wr3g0Q-47" value="Yes" style="rounded=1;whiteSpace=wrap;html=1;" vertex="1" parent="WIyWlLk6GJQsqaUBKTNV-1">
          <mxGeometry x="540" y="790" width="80" height="40" as="geometry" />
        </mxCell>
        <mxCell id="4DhZCOvuepyt47Wr3g0Q-48" value="" style="endArrow=classic;html=1;rounded=0;exitX=1;exitY=0.5;exitDx=0;exitDy=0;entryX=0;entryY=0.5;entryDx=0;entryDy=0;" edge="1" parent="WIyWlLk6GJQsqaUBKTNV-1" source="4DhZCOvuepyt47Wr3g0Q-41" target="4DhZCOvuepyt47Wr3g0Q-47">
          <mxGeometry width="50" height="50" relative="1" as="geometry">
            <mxPoint x="530" y="800" as="sourcePoint" />
            <mxPoint x="580" y="750" as="targetPoint" />
          </mxGeometry>
        </mxCell>
        <mxCell id="4DhZCOvuepyt47Wr3g0Q-49" value="" style="endArrow=classic;html=1;rounded=0;exitX=1;exitY=0.5;exitDx=0;exitDy=0;entryX=0.5;entryY=1;entryDx=0;entryDy=0;" edge="1" parent="WIyWlLk6GJQsqaUBKTNV-1" source="4DhZCOvuepyt47Wr3g0Q-47" target="4DhZCOvuepyt47Wr3g0Q-35">
          <mxGeometry width="50" height="50" relative="1" as="geometry">
            <mxPoint x="530" y="800" as="sourcePoint" />
            <mxPoint x="580" y="750" as="targetPoint" />
            <Array as="points">
              <mxPoint x="720" y="810" />
            </Array>
          </mxGeometry>
        </mxCell>
        <mxCell id="4DhZCOvuepyt47Wr3g0Q-50" value="" style="endArrow=classic;html=1;rounded=0;exitX=0;exitY=0.5;exitDx=0;exitDy=0;entryX=0;entryY=0.5;entryDx=0;entryDy=0;" edge="1" parent="WIyWlLk6GJQsqaUBKTNV-1" source="4DhZCOvuepyt47Wr3g0Q-37" target="4DhZCOvuepyt47Wr3g0Q-23">
          <mxGeometry width="50" height="50" relative="1" as="geometry">
            <mxPoint x="530" y="660" as="sourcePoint" />
            <mxPoint x="580" y="610" as="targetPoint" />
            <Array as="points">
              <mxPoint x="370" y="710" />
              <mxPoint x="370" y="520" />
            </Array>
          </mxGeometry>
        </mxCell>
        <mxCell id="4DhZCOvuepyt47Wr3g0Q-54" value="" style="edgeStyle=none;rounded=0;orthogonalLoop=1;jettySize=auto;html=1;" edge="1" parent="WIyWlLk6GJQsqaUBKTNV-1" source="4DhZCOvuepyt47Wr3g0Q-51" target="4DhZCOvuepyt47Wr3g0Q-27">
          <mxGeometry relative="1" as="geometry" />
        </mxCell>
        <mxCell id="4DhZCOvuepyt47Wr3g0Q-51" value="Is Runaway &lt;br&gt;Lockout active?&amp;nbsp;" style="rhombus;whiteSpace=wrap;html=1;" vertex="1" parent="WIyWlLk6GJQsqaUBKTNV-1">
          <mxGeometry x="520" y="150" width="120" height="120" as="geometry" />
        </mxCell>
        <mxCell id="4DhZCOvuepyt47Wr3g0Q-52" style="edgeStyle=none;rounded=0;orthogonalLoop=1;jettySize=auto;html=1;exitX=0.5;exitY=0;exitDx=0;exitDy=0;" edge="1" parent="WIyWlLk6GJQsqaUBKTNV-1" source="4DhZCOvuepyt47Wr3g0Q-31" target="4DhZCOvuepyt47Wr3g0Q-31">
          <mxGeometry relative="1" as="geometry" />
        </mxCell>
        <mxCell id="4DhZCOvuepyt47Wr3g0Q-53" value="" style="endArrow=classic;html=1;rounded=0;exitX=1;exitY=0.5;exitDx=0;exitDy=0;entryX=0;entryY=0.5;entryDx=0;entryDy=0;" edge="1" parent="WIyWlLk6GJQsqaUBKTNV-1" source="4DhZCOvuepyt47Wr3g0Q-15" target="4DhZCOvuepyt47Wr3g0Q-51">
          <mxGeometry width="50" height="50" relative="1" as="geometry">
            <mxPoint x="430" y="380" as="sourcePoint" />
            <mxPoint x="480" y="330" as="targetPoint" />
          </mxGeometry>
        </mxCell>
        <mxCell id="4DhZCOvuepyt47Wr3g0Q-55" value="Yes" style="rounded=1;whiteSpace=wrap;html=1;" vertex="1" parent="WIyWlLk6GJQsqaUBKTNV-1">
          <mxGeometry x="690" y="190" width="80" height="40" as="geometry" />
        </mxCell>
        <mxCell id="4DhZCOvuepyt47Wr3g0Q-57" value="10 minute Lockout shut down all solenoids and disable safty relay" style="rounded=1;whiteSpace=wrap;html=1;" vertex="1" parent="WIyWlLk6GJQsqaUBKTNV-1">
          <mxGeometry x="655" y="270" width="150" height="70" as="geometry" />
        </mxCell>
        <mxCell id="4DhZCOvuepyt47Wr3g0Q-58" value="" style="endArrow=classic;html=1;rounded=0;exitX=1;exitY=0.5;exitDx=0;exitDy=0;entryX=0;entryY=0.5;entryDx=0;entryDy=0;" edge="1" parent="WIyWlLk6GJQsqaUBKTNV-1" source="4DhZCOvuepyt47Wr3g0Q-51" target="4DhZCOvuepyt47Wr3g0Q-55">
          <mxGeometry width="50" height="50" relative="1" as="geometry">
            <mxPoint x="470" y="250" as="sourcePoint" />
            <mxPoint x="520" y="200" as="targetPoint" />
          </mxGeometry>
        </mxCell>
        <mxCell id="4DhZCOvuepyt47Wr3g0Q-59" value="" style="endArrow=classic;html=1;rounded=0;exitX=0.5;exitY=1;exitDx=0;exitDy=0;entryX=0.5;entryY=0;entryDx=0;entryDy=0;" edge="1" parent="WIyWlLk6GJQsqaUBKTNV-1" source="4DhZCOvuepyt47Wr3g0Q-55" target="4DhZCOvuepyt47Wr3g0Q-57">
          <mxGeometry width="50" height="50" relative="1" as="geometry">
            <mxPoint x="480" y="250" as="sourcePoint" />
            <mxPoint x="530" y="200" as="targetPoint" />
          </mxGeometry>
        </mxCell>
        <mxCell id="4DhZCOvuepyt47Wr3g0Q-60" value="Yes" style="rounded=1;whiteSpace=wrap;html=1;" vertex="1" parent="WIyWlLk6GJQsqaUBKTNV-1">
          <mxGeometry x="540" y="430" width="80" height="40" as="geometry" />
        </mxCell>
        <mxCell id="4DhZCOvuepyt47Wr3g0Q-62" value="" style="endArrow=classic;html=1;rounded=0;exitX=0.5;exitY=1;exitDx=0;exitDy=0;" edge="1" parent="WIyWlLk6GJQsqaUBKTNV-1" source="4DhZCOvuepyt47Wr3g0Q-22">
          <mxGeometry width="50" height="50" relative="1" as="geometry">
            <mxPoint x="520" y="510" as="sourcePoint" />
            <mxPoint x="580" y="430" as="targetPoint" />
          </mxGeometry>
        </mxCell>
        <mxCell id="4DhZCOvuepyt47Wr3g0Q-63" value="" style="endArrow=classic;html=1;rounded=0;exitX=0.5;exitY=1;exitDx=0;exitDy=0;entryX=0.5;entryY=0;entryDx=0;entryDy=0;" edge="1" parent="WIyWlLk6GJQsqaUBKTNV-1" source="4DhZCOvuepyt47Wr3g0Q-60" target="4DhZCOvuepyt47Wr3g0Q-23">
          <mxGeometry width="50" height="50" relative="1" as="geometry">
            <mxPoint x="590" y="420" as="sourcePoint" />
            <mxPoint x="590" y="440" as="targetPoint" />
          </mxGeometry>
        </mxCell>
        <mxCell id="4DhZCOvuepyt47Wr3g0Q-64" value="No" style="rounded=1;whiteSpace=wrap;html=1;" vertex="1" parent="WIyWlLk6GJQsqaUBKTNV-1">
          <mxGeometry x="390" y="360" width="80" height="40" as="geometry" />
        </mxCell>
        <mxCell id="4DhZCOvuepyt47Wr3g0Q-65" value="" style="endArrow=classic;html=1;rounded=0;exitX=0;exitY=0.5;exitDx=0;exitDy=0;entryX=1;entryY=0.5;entryDx=0;entryDy=0;" edge="1" parent="WIyWlLk6GJQsqaUBKTNV-1" source="4DhZCOvuepyt47Wr3g0Q-22" target="4DhZCOvuepyt47Wr3g0Q-64">
          <mxGeometry width="50" height="50" relative="1" as="geometry">
            <mxPoint x="520" y="440" as="sourcePoint" />
            <mxPoint x="570" y="390" as="targetPoint" />
          </mxGeometry>
        </mxCell>
        <mxCell id="4DhZCOvuepyt47Wr3g0Q-66" value="Does the sensor return a value not equal to 0.0" style="rounded=1;whiteSpace=wrap;html=1;" vertex="1" parent="WIyWlLk6GJQsqaUBKTNV-1">
          <mxGeometry x="210" y="10" width="120" height="60" as="geometry" />
        </mxCell>
        <mxCell id="4DhZCOvuepyt47Wr3g0Q-68" value="No" style="rounded=1;whiteSpace=wrap;html=1;" vertex="1" parent="WIyWlLk6GJQsqaUBKTNV-1">
          <mxGeometry x="380" y="20" width="80" height="40" as="geometry" />
        </mxCell>
        <mxCell id="4DhZCOvuepyt47Wr3g0Q-69" value="Yes" style="rounded=1;whiteSpace=wrap;html=1;" vertex="1" parent="WIyWlLk6GJQsqaUBKTNV-1">
          <mxGeometry x="230" y="90" width="80" height="40" as="geometry" />
        </mxCell>
        <mxCell id="4DhZCOvuepyt47Wr3g0Q-70" value="" style="endArrow=classic;html=1;rounded=0;exitX=1;exitY=0.5;exitDx=0;exitDy=0;entryX=0;entryY=0.5;entryDx=0;entryDy=0;" edge="1" parent="WIyWlLk6GJQsqaUBKTNV-1" source="4DhZCOvuepyt47Wr3g0Q-66" target="4DhZCOvuepyt47Wr3g0Q-68">
          <mxGeometry width="50" height="50" relative="1" as="geometry">
            <mxPoint x="350" y="60" as="sourcePoint" />
            <mxPoint x="400" y="10" as="targetPoint" />
          </mxGeometry>
        </mxCell>
        <mxCell id="4DhZCOvuepyt47Wr3g0Q-71" value="" style="endArrow=classic;html=1;rounded=0;exitX=1;exitY=0.5;exitDx=0;exitDy=0;entryX=0;entryY=0.5;entryDx=0;entryDy=0;" edge="1" parent="WIyWlLk6GJQsqaUBKTNV-1" source="4DhZCOvuepyt47Wr3g0Q-6" target="4DhZCOvuepyt47Wr3g0Q-66">
          <mxGeometry width="50" height="50" relative="1" as="geometry">
            <mxPoint x="350" y="60" as="sourcePoint" />
            <mxPoint x="400" y="10" as="targetPoint" />
          </mxGeometry>
        </mxCell>
        <mxCell id="4DhZCOvuepyt47Wr3g0Q-72" value="" style="endArrow=classic;html=1;rounded=0;exitX=0.5;exitY=1;exitDx=0;exitDy=0;entryX=0.5;entryY=0;entryDx=0;entryDy=0;" edge="1" parent="WIyWlLk6GJQsqaUBKTNV-1" source="4DhZCOvuepyt47Wr3g0Q-66" target="4DhZCOvuepyt47Wr3g0Q-69">
          <mxGeometry width="50" height="50" relative="1" as="geometry">
            <mxPoint x="350" y="60" as="sourcePoint" />
            <mxPoint x="400" y="10" as="targetPoint" />
          </mxGeometry>
        </mxCell>
        <mxCell id="4DhZCOvuepyt47Wr3g0Q-73" value="" style="endArrow=classic;html=1;rounded=0;exitX=0.5;exitY=1;exitDx=0;exitDy=0;entryX=0.5;entryY=0;entryDx=0;entryDy=0;" edge="1" parent="WIyWlLk6GJQsqaUBKTNV-1" source="4DhZCOvuepyt47Wr3g0Q-69" target="4DhZCOvuepyt47Wr3g0Q-7">
          <mxGeometry width="50" height="50" relative="1" as="geometry">
            <mxPoint x="350" y="60" as="sourcePoint" />
            <mxPoint x="400" y="10" as="targetPoint" />
          </mxGeometry>
        </mxCell>
        <mxCell id="4DhZCOvuepyt47Wr3g0Q-74" value="Full Lockout shut down all solenoids and disable safety relay. Illuminate blue fault LED" style="rounded=1;whiteSpace=wrap;html=1;" vertex="1" parent="WIyWlLk6GJQsqaUBKTNV-1">
          <mxGeometry x="520" y="10" width="150" height="80" as="geometry" />
        </mxCell>
        <mxCell id="4DhZCOvuepyt47Wr3g0Q-78" value="" style="endArrow=classic;html=1;rounded=0;exitX=1;exitY=0.5;exitDx=0;exitDy=0;" edge="1" parent="WIyWlLk6GJQsqaUBKTNV-1" source="4DhZCOvuepyt47Wr3g0Q-68">
          <mxGeometry width="50" height="50" relative="1" as="geometry">
            <mxPoint x="350" y="30" as="sourcePoint" />
            <mxPoint x="520" y="40" as="targetPoint" />
          </mxGeometry>
        </mxCell>
      </root>
    </mxGraphModel>
  </diagram>
</mxfile>
